<svg version="1.2" xmlns="http://www.w3.org/2000/svg" viewBox="0 0 541 330" width="541" height="330">
	<title>&lt;Group&gt;</title>
	<style>
		.s0 { fill: #333333 } 
	</style>
	<g id="&lt;Group&gt;">
		<g id="&lt;Group&gt;">
			<path id="&lt;Compound Path&gt;" fill-rule="evenodd" class="s0" d="m540.5 318.2c0 6.4-5.2 11.6-11.6 11.6-4.3 0-8-2.3-10.1-5.7h-6.5l-2.1-2.1h-20.8c-0.7 1.4-2.1 2.3-3.8 2.3-1.9 0-3.5-1.3-4.1-3h-3.4c-0.4 0.5-1 0.8-1.6 0.8-1.2 0-2.1-0.9-2.2-2h-47.3-0.1l-5.9-5.9h-301l-5.9 5.9h-47.3c-0.1 1.1-1.1 2-2.2 2-0.7 0-1.3-0.3-1.7-0.8h-3.4c-0.5 1.7-2.1 3-4.1 3-1.6 0-3-0.9-3.8-2.3h-20.8l-2.1 2.1h-6.5c-2 3.4-5.7 5.7-10 5.7-6.4 0-11.7-5.2-11.7-11.6 0-4.5 2.6-8.4 6.3-10.4v-6.3l2-1.9v-19.8c-1.4-0.7-2.3-2.1-2.3-3.8 0-1.9 1.2-3.5 3-4.1v-2.9c-0.5-0.4-0.9-1-0.9-1.7 0-1.1 0.9-2.1 2.1-2.1v-46.6l7.2-7.2v-93l-7.2-7.2v-46.5c-1.2-0.1-2.1-1-2.1-2.2 0-0.7 0.4-1.3 0.9-1.7v-2.9c-1.8-0.5-3-2.2-3-4.1 0-1.6 0.9-3 2.3-3.8v-19.7l-2-2v-6.3c-3.7-1.9-6.3-5.8-6.3-10.3 0-6.4 5.3-11.7 11.7-11.7 4.3 0 8 2.3 10 5.7h6.5l2.1 2.1h20.8c0.8-1.3 2.2-2.2 3.8-2.2 2 0 3.6 1.2 4.1 2.9h3.4c0.4-0.5 1-0.8 1.7-0.8 1.1 0 2.1 0.9 2.2 2h47.3l5.9 6h301l6-6h47.3c0.1-1.1 1-2 2.2-2 0.6 0 1.2 0.3 1.6 0.8h3.4c0.6-1.7 2.2-2.9 4.1-2.9 1.7 0 3.1 0.9 3.8 2.2h20.8l2.1-2.1h6.5c2.1-3.4 5.8-5.7 10.1-5.7 6.4 0 11.6 5.3 11.6 11.7 0 4.5-2.5 8.4-6.3 10.3v6.3l-1.9 2v19.7c1.3 0.8 2.3 2.2 2.3 3.8 0 1.9-1.3 3.6-3 4.1v2.9c0.5 0.4 0.8 1 0.8 1.7 0 1.2-0.9 2.1-2 2.2v46.5 0.1l-7.2 7.1v93l7.2 7.2v46.6c1.1 0 2 1 2 2.1 0 0.7-0.3 1.3-0.8 1.7v2.9c1.7 0.6 3 2.2 3 4.1 0 1.7-1 3.1-2.3 3.8v19.8l1.9 1.9v6.3c3.8 2 6.3 5.9 6.3 10.4zm-54.9-2.6c1.7 0 3.1 0.9 3.8 2.3h22.7l2.1-2.1h3.2c0.9-4.4 4.3-7.8 8.5-8.9v-3.5l2.3-2.3v-21.3c-1.4-0.7-2.3-2.1-2.3-3.8 0-1.9 1.2-3.5 3-4.1v-2.9c-0.5-0.4-0.9-1-0.9-1.7 0-1.1 0.9-2.1 2.1-2.1v-46.4l-7.3-7.2v-93.3l0.1-0.1 7.2-7.1v-46.4c-1.2-0.1-2.1-1-2.1-2.2 0-0.7 0.4-1.3 0.9-1.7v-2.9c-1.8-0.5-3-2.2-3-4.1 0-1.6 0.9-3 2.3-3.8v-21.3l-2.3-2.2v-3.5c-4.3-1.1-7.6-4.6-8.5-8.9h-3.2l-2.1-2.1h-22.7c-0.7 1.3-2.1 2.2-3.8 2.2-1.9 0-3.5-1.2-4.1-2.9h-3.4c-0.4 0.5-1 0.8-1.6 0.8-1.2 0-2.1-0.9-2.2-2h-47.2l-5.9 5.9h-301.3l-6-5.9h-47.1c-0.1 1.1-1.1 2-2.2 2-0.7 0-1.3-0.3-1.7-0.8h-3.4c-0.5 1.7-2.1 2.9-4.1 2.9-1.6 0-3-0.9-3.8-2.2h-22.6l-2.1 2.1h-3.3c-0.9 4.3-4.2 7.8-8.5 8.9v3.5l-2.2 2.2v21.3c1.3 0.8 2.3 2.2 2.3 3.8 0 1.9-1.3 3.6-3 4.1v2.9c0.5 0.4 0.8 1 0.8 1.7 0 1.2-0.9 2.1-2 2.2v46.4l7.2 7.2v93.3l-7.2 7.2v46.4c1.1 0 2 1 2 2.1 0 0.7-0.3 1.3-0.8 1.7v2.9c1.7 0.6 3 2.2 3 4.1 0 1.7-1 3.1-2.3 3.8v21.3l2.2 2.3v3.5c4.3 1.1 7.6 4.5 8.5 8.9h3.3l2.1 2.1h22.6c0.8-1.4 2.2-2.3 3.8-2.3 2 0 3.6 1.3 4.1 3h3.4c0.4-0.5 1-0.8 1.7-0.8 1.1 0 2.1 0.9 2.2 2h47.1l6-6h301.3v0.1l5.9 5.9h47.2c0.1-1.1 1-2 2.2-2 0.6 0 1.2 0.3 1.6 0.8h3.4c0.6-1.7 2.2-3 4.1-3zm32.5-301.5c0.9 3.9 3.9 7.1 7.8 8.2v-1.1l1.2-1.2v-2c-2.4-0.7-4.2-2.7-4.7-5.1h-1.8l-1.2 1.2zm1.5-8.4h1.2l1 1.1h2.8c1.1-1 2.6-1.6 4.2-1.6 3.6 0 6.6 2.9 6.6 6.5 0 1.9-0.9 3.6-2.2 4.8v2.3l1 1.1v1.4c3.3-1.9 5.6-5.5 5.6-9.6 0-6.1-4.9-11-11-11-3.8 0-7.2 2-9.2 5zm-504.5 15.5v1.1c3.9-1.1 6.9-4.3 7.8-8.2h-1.3l-1.2-1.2h-1.8c-0.5 2.4-2.3 4.4-4.7 5.1v2zm-8.3 0.1v-1.4l1-1.1v-2.2c-1.3-1.2-2.2-3-2.2-4.9 0-3.6 3-6.5 6.6-6.5 1.6 0 3.1 0.6 4.2 1.6h2.8l1.1-1.1h1.1c-2-3-5.4-5-9.2-5-6.1 0-11 5-11 11 0 4.1 2.3 7.7 5.6 9.6zm16.1 294.5c-0.9-4-3.9-7.1-7.8-8.2v1l-1.2 1.2v2.1c2.4 0.7 4.2 2.6 4.7 5.1h1.8l1.2-1.2zm-1.5 8.3h-1.1l-1-1h-2.8c-1.2 1-2.7 1.6-4.3 1.6-3.6 0-6.5-2.9-6.5-6.5 0-2 0.8-3.7 2.2-4.9v-2.3l-1.1-1v-1.4c-3.3 1.9-5.6 5.5-5.6 9.6 0 6 5 10.9 11 10.9 3.9 0 7.3-2 9.2-5zm504.5-15.5v-1c-3.9 1.1-6.9 4.2-7.8 8.2h1.3l1.2 1.2h1.9c0.4-2.5 2.2-4.4 4.6-5.1v-2.1zm13.9 9.6c0-4.2-2.2-7.7-5.6-9.6v1.4l-1 1v2.3c1.3 1.2 2.2 2.9 2.2 4.9 0 3.6-2.9 6.5-6.5 6.5-1.7 0-3.1-0.6-4.3-1.6h-2.8l-1 1h-1.2c2 3 5.4 5 9.3 5 6 0 10.9-4.9 10.9-10.9z"/>
			<path id="&lt;Compound Path&gt;" fill-rule="evenodd" class="s0" d="m502.8 302.1h-464.6c-4.4 0-8-3.6-8-8v-258.4c0-4.4 3.6-8 8-8h464.6c4.4 0 8 3.6 8 8v258.4c0 4.4-3.6 8-8 8zm-464.6-273.8c-4.1 0-7.4 3.3-7.4 7.4v258.4c0 4.1 3.3 7.5 7.4 7.5h464.6c4.1 0 7.5-3.4 7.5-7.5v-258.4c0-4.1-3.4-7.4-7.5-7.4z"/>
		</g>
		<g id="&lt;Group&gt;" style="display: none">
			<path id="&lt;Compound Path&gt;" class="s0" d="m255.9 46.6v-8.3h-2.9v-1.7h7.9v1.7h-3v8.3z"/>
			<path id="&lt;Compound Path&gt;" class="s0" d="m262.2 46.6v-10h7.4v1.7h-5.4v2.2h5.1v1.7h-5.1v2.7h5.6v1.7z"/>
			<path id="&lt;Compound Path&gt;" class="s0" d="m270.5 46.6l3.4-5.2-3.1-4.8h2.4l2 3.2 2-3.2h2.3l-3.1 4.9 3.4 5.1h-2.4l-2.2-3.4-2.3 3.4z"/>
			<path id="&lt;Compound Path&gt;" class="s0" d="m283.1 46.6v-8.3h-3v-1.7h8v1.7h-3v8.3z"/>
		</g>
		<g id="&lt;Group&gt;">
			<g id="&lt;Group&gt;">
				<g id="&lt;Group&gt;">
					<g id="&lt;Group&gt;">
						<path id="&lt;Path&gt;" class="s0" d="m52.2 39.7h2.6l-3 5.2h-2.6z"/>
						<path id="&lt;Path&gt;" class="s0" d="m52.2 38.9l-3-5.1h2.6l3 5.1z"/>
					</g>
					<g id="&lt;Group&gt;">
						<path id="&lt;Path&gt;" class="s0" d="m57.8 39.7h2.5l-2.9 5.2h-2.6z"/>
						<path id="&lt;Path&gt;" class="s0" d="m57.8 38.9l-3-5.1h2.6l2.9 5.1z"/>
					</g>
					<g id="&lt;Group&gt;">
						<path id="&lt;Path&gt;" class="s0" d="m63.3 39.7h2.6l-3 5.2h-2.6z"/>
						<path id="&lt;Path&gt;" class="s0" d="m63.3 38.9l-3-5.1h2.6l3 5.1z"/>
					</g>
					<g id="&lt;Group&gt;">
						<path id="&lt;Path&gt;" class="s0" d="m68.9 39.7h2.5l-3 5.2h-2.5z"/>
						<path id="&lt;Path&gt;" class="s0" d="m68.9 38.9l-3-5.1h2.5l3 5.1z"/>
					</g>
					<g id="&lt;Group&gt;">
						<path id="&lt;Path&gt;" class="s0" d="m74.4 39.7h2.6l-3 5.2h-2.6z"/>
						<path id="&lt;Path&gt;" class="s0" d="m74.4 38.9l-3-5.1h2.6l3 5.1z"/>
					</g>
					<g id="&lt;Group&gt;">
						<path id="&lt;Path&gt;" class="s0" d="m80 39.7h2.5l-3 5.2h-2.5z"/>
						<path id="&lt;Path&gt;" class="s0" d="m80 38.9l-3-5.1h2.5l3 5.1z"/>
					</g>
					<g id="&lt;Group&gt;">
						<path id="&lt;Path&gt;" class="s0" d="m85.5 39.7h2.6l-3 5.2h-2.6z"/>
						<path id="&lt;Path&gt;" class="s0" d="m85.5 38.9l-3-5.1h2.6l3 5.1z"/>
					</g>
					<g id="&lt;Group&gt;">
						<path id="&lt;Path&gt;" class="s0" d="m91.1 39.7h2.5l-3 5.2h-2.5z"/>
						<path id="&lt;Path&gt;" class="s0" d="m91.1 38.9l-3-5.1h2.5l3 5.1z"/>
					</g>
					<g id="&lt;Group&gt;">
						<path id="&lt;Path&gt;" class="s0" d="m96.6 39.7h2.6l-3 5.2h-2.6z"/>
						<path id="&lt;Path&gt;" class="s0" d="m96.6 38.9l-3-5.1h2.6l3 5.1z"/>
					</g>
					<g id="&lt;Group&gt;">
						<path id="&lt;Path&gt;" class="s0" d="m102.2 39.7h2.5l-3 5.2h-2.5z"/>
						<path id="&lt;Path&gt;" class="s0" d="m102.2 38.9l-3-5.1h2.5l3 5.1z"/>
					</g>
					<g id="&lt;Group&gt;">
						<path id="&lt;Path&gt;" class="s0" d="m107.7 39.7h2.6l-3 5.2h-2.6z"/>
						<path id="&lt;Path&gt;" class="s0" d="m107.7 38.9l-3-5.1h2.6l3 5.1z"/>
					</g>
					<g id="&lt;Group&gt;">
						<path id="&lt;Path&gt;" class="s0" d="m113.3 39.7h2.5l-3 5.2h-2.5z"/>
						<path id="&lt;Path&gt;" class="s0" d="m113.3 38.9l-3-5.1h2.5l3 5.1z"/>
					</g>
					<g id="&lt;Group&gt;">
						<path id="&lt;Path&gt;" class="s0" d="m118.8 39.7h2.6l-3 5.2h-2.6z"/>
						<path id="&lt;Path&gt;" class="s0" d="m118.8 38.9l-3-5.1h2.6l3 5.1z"/>
					</g>
					<g id="&lt;Group&gt;">
						<path id="&lt;Path&gt;" class="s0" d="m124.4 39.7h2.5l-3 5.2h-2.5z"/>
						<path id="&lt;Path&gt;" class="s0" d="m124.4 38.9l-3-5.1h2.5l3 5.1z"/>
					</g>
					<g id="&lt;Group&gt;">
						<path id="&lt;Path&gt;" class="s0" d="m129.9 39.7h2.6l-3 5.2h-2.6z"/>
						<path id="&lt;Path&gt;" class="s0" d="m129.9 38.9l-3-5.1h2.6l3 5.1z"/>
					</g>
					<g id="&lt;Group&gt;">
						<path id="&lt;Path&gt;" class="s0" d="m135.5 39.7h2.5l-3 5.2h-2.5z"/>
						<path id="&lt;Path&gt;" class="s0" d="m135.5 38.9l-3-5.1h2.5l3 5.1z"/>
					</g>
					<g id="&lt;Group&gt;">
						<path id="&lt;Path&gt;" class="s0" d="m141 39.7h2.6l-3 5.2h-2.6z"/>
						<path id="&lt;Path&gt;" class="s0" d="m141 38.9l-3-5.1h2.6l3 5.1z"/>
					</g>
					<g id="&lt;Group&gt;">
						<path id="&lt;Path&gt;" class="s0" d="m146.6 39.7h2.5l-3 5.2h-2.5z"/>
						<path id="&lt;Path&gt;" class="s0" d="m146.6 38.9l-3-5.1h2.5l3 5.1z"/>
					</g>
					<g id="&lt;Group&gt;">
						<path id="&lt;Path&gt;" class="s0" d="m152.1 39.7h2.6l-3 5.2h-2.6z"/>
						<path id="&lt;Path&gt;" class="s0" d="m152.1 38.9l-3-5.1h2.6l3 5.1z"/>
					</g>
					<g id="&lt;Group&gt;">
						<path id="&lt;Path&gt;" class="s0" d="m157.7 39.7h2.5l-3 5.2h-2.5z"/>
						<path id="&lt;Path&gt;" class="s0" d="m157.7 38.9l-3-5.1h2.5l3 5.1z"/>
					</g>
					<g id="&lt;Group&gt;">
						<path id="&lt;Path&gt;" class="s0" d="m163.2 39.7h2.6l-3 5.2h-2.6z"/>
						<path id="&lt;Path&gt;" class="s0" d="m163.2 38.9l-3-5.1h2.6l3 5.1z"/>
					</g>
					<g id="&lt;Group&gt;">
						<path id="&lt;Path&gt;" class="s0" d="m168.8 39.7h2.5l-3 5.2h-2.5z"/>
						<path id="&lt;Path&gt;" class="s0" d="m168.8 38.9l-3-5.1h2.5l3 5.1z"/>
					</g>
				</g>
				<g id="&lt;Group&gt;">
					<g id="&lt;Group&gt;">
						<path id="&lt;Path&gt;" class="s0" d="m488.8 39.7h-2.5l3 5.2h2.5z"/>
						<path id="&lt;Path&gt;" class="s0" d="m488.8 38.9l3-5.1h-2.5l-3 5.1z"/>
					</g>
					<g id="&lt;Group&gt;">
						<path id="&lt;Path&gt;" class="s0" d="m483.3 39.7h-2.6l3 5.2h2.6z"/>
						<path id="&lt;Path&gt;" class="s0" d="m483.3 38.9l3-5.1h-2.6l-3 5.1z"/>
					</g>
					<g id="&lt;Group&gt;">
						<path id="&lt;Path&gt;" class="s0" d="m477.7 39.7h-2.5l3 5.2h2.5z"/>
						<path id="&lt;Path&gt;" class="s0" d="m477.7 38.9l3-5.1h-2.5l-3 5.1z"/>
					</g>
					<g id="&lt;Group&gt;">
						<path id="&lt;Path&gt;" class="s0" d="m472.2 39.7h-2.6l3 5.2h2.6z"/>
						<path id="&lt;Path&gt;" class="s0" d="m472.2 38.9l3-5.1h-2.6l-3 5.1z"/>
					</g>
					<g id="&lt;Group&gt;">
						<path id="&lt;Path&gt;" class="s0" d="m466.6 39.7h-2.5l3 5.2h2.5z"/>
						<path id="&lt;Path&gt;" class="s0" d="m466.6 38.9l3-5.1h-2.5l-3 5.1z"/>
					</g>
					<g id="&lt;Group&gt;">
						<path id="&lt;Path&gt;" class="s0" d="m461.1 39.7h-2.6l3 5.2h2.6z"/>
						<path id="&lt;Path&gt;" class="s0" d="m461.1 38.9l3-5.1h-2.6l-3 5.1z"/>
					</g>
					<g id="&lt;Group&gt;">
						<path id="&lt;Path&gt;" class="s0" d="m455.5 39.7h-2.5l3 5.2h2.5z"/>
						<path id="&lt;Path&gt;" class="s0" d="m455.5 38.9l3-5.1h-2.5l-3 5.1z"/>
					</g>
					<g id="&lt;Group&gt;">
						<path id="&lt;Path&gt;" class="s0" d="m450 39.7h-2.6l3 5.2h2.6z"/>
						<path id="&lt;Path&gt;" class="s0" d="m450 38.9l3-5.1h-2.6l-3 5.1z"/>
					</g>
					<g id="&lt;Group&gt;">
						<path id="&lt;Path&gt;" class="s0" d="m444.4 39.7h-2.5l3 5.2h2.5z"/>
						<path id="&lt;Path&gt;" class="s0" d="m444.4 38.9l3-5.1h-2.5l-3 5.1z"/>
					</g>
					<g id="&lt;Group&gt;">
						<path id="&lt;Path&gt;" class="s0" d="m438.9 39.7h-2.6l3 5.2h2.6z"/>
						<path id="&lt;Path&gt;" class="s0" d="m438.9 38.9l3-5.1h-2.6l-3 5.1z"/>
					</g>
					<g id="&lt;Group&gt;">
						<path id="&lt;Path&gt;" class="s0" d="m433.3 39.7h-2.5l3 5.2h2.5z"/>
						<path id="&lt;Path&gt;" class="s0" d="m433.3 38.9l3-5.1h-2.5l-3 5.1z"/>
					</g>
					<g id="&lt;Group&gt;">
						<path id="&lt;Path&gt;" class="s0" d="m427.8 39.7h-2.6l3 5.2h2.6z"/>
						<path id="&lt;Path&gt;" class="s0" d="m427.8 38.9l3-5.1h-2.6l-3 5.1z"/>
					</g>
					<g id="&lt;Group&gt;">
						<path id="&lt;Path&gt;" class="s0" d="m422.2 39.7h-2.5l3 5.2h2.5z"/>
						<path id="&lt;Path&gt;" class="s0" d="m422.2 38.9l3-5.1h-2.5l-3 5.1z"/>
					</g>
					<g id="&lt;Group&gt;">
						<path id="&lt;Path&gt;" class="s0" d="m416.7 39.7h-2.6l3 5.2h2.6z"/>
						<path id="&lt;Path&gt;" class="s0" d="m416.7 38.9l3-5.1h-2.6l-3 5.1z"/>
					</g>
					<g id="&lt;Group&gt;">
						<path id="&lt;Path&gt;" class="s0" d="m411.1 39.7h-2.5l3 5.2h2.5z"/>
						<path id="&lt;Path&gt;" class="s0" d="m411.1 38.9l3-5.1h-2.5l-3 5.1z"/>
					</g>
					<g id="&lt;Group&gt;">
						<path id="&lt;Path&gt;" class="s0" d="m405.6 39.7h-2.6l3 5.2h2.6z"/>
						<path id="&lt;Path&gt;" class="s0" d="m405.6 38.9l3-5.1h-2.6l-3 5.1z"/>
					</g>
					<g id="&lt;Group&gt;">
						<path id="&lt;Path&gt;" class="s0" d="m400 39.7h-2.5l3 5.2h2.5z"/>
						<path id="&lt;Path&gt;" class="s0" d="m400 38.9l3-5.1h-2.5l-3 5.1z"/>
					</g>
					<g id="&lt;Group&gt;">
						<path id="&lt;Path&gt;" class="s0" d="m394.5 39.7h-2.6l3 5.2h2.6z"/>
						<path id="&lt;Path&gt;" class="s0" d="m394.5 38.9l3-5.1h-2.6l-3 5.1z"/>
					</g>
					<g id="&lt;Group&gt;">
						<path id="&lt;Path&gt;" class="s0" d="m388.9 39.7h-2.5l3 5.2h2.5z"/>
						<path id="&lt;Path&gt;" class="s0" d="m388.9 38.9l3-5.1h-2.5l-3 5.1z"/>
					</g>
					<g id="&lt;Group&gt;">
						<path id="&lt;Path&gt;" class="s0" d="m383.4 39.7h-2.6l3 5.2h2.6z"/>
						<path id="&lt;Path&gt;" class="s0" d="m383.4 38.9l3-5.1h-2.6l-3 5.1z"/>
					</g>
					<g id="&lt;Group&gt;">
						<path id="&lt;Path&gt;" class="s0" d="m377.8 39.7h-2.5l3 5.2h2.5z"/>
						<path id="&lt;Path&gt;" class="s0" d="m377.8 38.9l3-5.1h-2.5l-3 5.1z"/>
					</g>
					<g id="&lt;Group&gt;">
						<path id="&lt;Path&gt;" class="s0" d="m372.3 39.7h-2.6l3 5.2h2.6z"/>
						<path id="&lt;Path&gt;" class="s0" d="m372.3 38.9l3-5.1h-2.6l-3 5.1z"/>
					</g>
				</g>
			</g>
			<g id="&lt;Group&gt;">
				<path id="&lt;Path&gt;" class="s0" d="m246.4 40h-66.8v-0.7h66.8z"/>
				<path id="&lt;Path&gt;" class="s0" d="m294.7 40h66.7v-0.7h-66.7z"/>
			</g>
		</g>
	</g>
</svg>