<svg version="1.2" xmlns="http://www.w3.org/2000/svg" viewBox="0 0 612 32" width="612" height="32">
    <defs>
        <filter id="shadow" height="160%">
            <feDropShadow dx="2" dy="2" stdDeviation="2" flood-color="#000000" flood-opacity="0.5"/>
        </filter>
    </defs>
    <style>.a{fill:#e67641; filter: url(#shadow);}</style>
<path class="a" d="m249.5 20.3l9-9h95l8.9 9z"/>
<g style="opacity:.5;mix-blend-mode:screen">
<path class="a" d="m269.5 4.8c0-1.3 1-2.3 2.3-2.3 1.2 0 2.2 1 2.2 2.3 0 1.2-1 2.2-2.2 2.2-1.3 0-2.3-1-2.3-2.2z"/>
</g>
<g style="opacity:.7;mix-blend-mode:screen">
<path class="a" d="m286.6 4.8c0-1.3 1-2.3 2.3-2.3 1.2 0 2.2 1 2.2 2.3 0 1.2-1 2.2-2.2 2.2-1.3 0-2.3-1-2.3-2.2z"/>
</g>
<g style="opacity:.9;mix-blend-mode:screen">
<path class="a" d="m303.7 4.8c0-1.3 1-2.3 2.3-2.3 1.2 0 2.2 1 2.2 2.3 0 1.2-1 2.2-2.2 2.2-1.3 0-2.3-1-2.3-2.2z"/>
</g>
<g style="opacity:.7;mix-blend-mode:screen">
<path class="a" d="m320.9 4.8c0-1.3 1-2.3 2.2-2.3 1.2 0 2.2 1 2.2 2.3 0 1.2-1 2.2-2.2 2.2-1.2 0-2.2-1-2.2-2.2z"/>
</g>
<g style="opacity:.5;mix-blend-mode:screen">
<path class="a" d="m338 4.8c0-1.3 1-2.3 2.2-2.3 1.2 0 2.3 1 2.3 2.3 0 1.2-1.1 2.2-2.3 2.2-1.2 0-2.2-1-2.2-2.2z"/>
</g>
<path class="a" d="m113.9 5.6h10.1l-20.2 20.2h-10.1z"/>
<g style="opacity:.5;mix-blend-mode:screen">
<path class="a" d="m98.5 11.8h-15.1l-5 5h15.2z"/>
<path class="a" d="m76 11.8h-15.2l-4.9 5h15.1z"/>
<path class="a" d="m53.4 11.8h-15.1l-4.9 5h15.1z"/>
<path class="a" d="m30.9 11.8h-15.1l-5 5h15.2z"/>
</g>
<g style="opacity:.3;mix-blend-mode:screen">
<path class="a" d="m156 31.6h-66.5q-0.4 0-0.7-0.3l-4.4-4.3h-82.5c-0.6 0-1-0.5-1-1 0-0.6 0.4-1.1 1-1.1h82.9q0.5 0.1 0.8 0.3l4.3 4.4h65.7l2.7-2.7q0.3-0.3 0.7-0.3h68.5c0.5 0 1 0.5 1 1 0 0.6-0.5 1-1 1h-68.1l-2.7 2.7q-0.3 0.3-0.7 0.3z"/>
</g>
<path class="a" d="m8.1 19.6h82.8l-2.4 2.4h-82.9z"/>
<path class="a" d="m240.8 0h-4l-11.7 11.7h-100.2l-2.1 2h104.4z"/>
<g style="opacity:.5;mix-blend-mode:screen">
<path class="a" d="m244.9 0l-15.7 15.7h-108.4l-10.1 10.1h41.9l5.6-5.5h79.3l20.3-20.3z"/>
</g>
<path class="a" d="m498.1 5.6h-10.1l20.2 20.2h10.1z"/>
<g style="opacity:.5;mix-blend-mode:screen">
<path class="a" d="m513.5 11.8h15.1l4.9 5h-15.1z"/>
<path class="a" d="m536 11.8h15.2l4.9 5h-15.2z"/>
<path class="a" d="m558.5 11.8h15.2l4.9 5h-15.1z"/>
<path class="a" d="m581.1 11.8h15.1l4.9 5h-15.1z"/>
</g><g style="opacity:.3;mix-blend-mode:screen">
<path class="a" d="m522.5 31.6h-66.5q-0.4 0-0.7-0.3l-2.7-2.7h-68.1c-0.5 0-1-0.4-1-1 0-0.5 0.5-1 1-1h68.5q0.4 0 0.7 0.3l2.7 2.7h65.6l4.4-4.4q0.3-0.2 0.7-0.3h83c0.5 0 1 0.5 1 1.1 0 0.5-0.5 1-1 1h-82.5l-4.4 4.3q-0.3 0.3-0.7 0.3z"/>
</g>
<path class="a" d="m603.9 19.6h-82.9l2.5 2.4h82.8z"/>
<path class="a" d="m371.1 0h4.1l11.6 11.7h100.3l2 2h-104.3z"/>
<g style="opacity:.5;mix-blend-mode:screen">
<path class="a" d="m367.1 0l15.7 15.7h108.4l10.1 10.1h-42l-5.5-5.5h-79.4l-20.2-20.3z"/>
</g>
</svg>